<svg width="75" height="75" viewBox="0 0 75 75" fill="none" xmlns="http://www.w3.org/2000/svg">
<g clip-path="url(#clip0)">
<path d="M59.1132 37.5502L58.0197 19.3247C57.3684 8.46973 48.3753 0 37.5008 0C26.6262 0 17.6331 8.46973 16.9818 19.3247L15.8883 37.5502C15.4596 44.695 18.5372 51.1997 23.5954 55.4442L51.4553 55.4029C56.4843 51.1575 59.5405 44.6719 59.1132 37.5502Z" fill="#FFD164"/>
<path d="M16.9818 19.3247L15.8883 37.5502C15.4596 44.695 18.5372 51.1997 23.5954 55.4442L37.5008 55.4235V0C26.6262 0 17.6331 8.46973 16.9818 19.3247Z" fill="#FFC350"/>
<path d="M60.4867 56.3507L47.99 51.9401C46.0549 51.2572 44.7609 49.4282 44.7609 47.3761V39.9106H30.2414V47.3761C30.2414 49.428 28.9473 51.257 27.0123 51.9399L14.5154 56.3506C11.6128 57.3749 9.67188 60.1185 9.67188 63.1964V71.3696C9.67188 73.3744 11.297 74.9995 13.3018 74.9995H61.7003C63.7051 74.9995 65.3302 73.3744 65.3302 71.3696V63.1964C65.3302 60.1186 63.3892 57.3752 60.4867 56.3507Z" fill="#FFD7A3"/>
<path d="M60.4866 56.3505L47.9898 51.9398C47.1881 51.657 46.506 51.1698 45.9707 50.5591V52.6151C45.9707 57.627 41.9078 61.6898 36.896 61.6898C31.8842 61.6898 27.8213 57.627 27.8213 52.6151V51.5577C27.5652 51.7058 27.2983 51.8388 27.0123 51.9398L14.5154 56.3505C11.6128 57.3749 9.67188 60.1184 9.67188 63.1963V71.3695C9.67188 73.3743 11.297 74.9994 13.3018 74.9994H61.7003C63.7051 74.9994 65.3302 73.3743 65.3302 71.3695V63.1963C65.3302 60.1184 63.3892 57.3749 60.4866 56.3505Z" fill="#58CCFC"/>
<path d="M23.5178 63.3705C24.6527 66.092 27.2854 67.8504 30.2244 67.8504C30.8171 67.8504 31.4106 67.7771 31.9887 67.6327L37.5007 66.2544L43.0126 67.6324C43.5908 67.777 44.1844 67.8502 44.7771 67.8502C47.7161 67.8502 50.3487 66.0918 51.4837 63.3703C52.7183 60.4102 53.3697 57.1535 53.4126 53.854L47.9896 51.9398C47.1879 51.657 46.5057 51.1698 45.9705 50.5591V52.6151C45.9705 57.6269 41.9076 61.6898 36.8958 61.6898C31.8839 61.6898 27.821 57.6269 27.821 52.6151V51.5577C27.565 51.7058 27.2981 51.8388 27.012 51.9398L21.5889 53.854C21.6318 57.1535 22.2831 60.4102 23.5178 63.3705Z" fill="#00A0E3"/>
<path d="M30.2412 46.884C32.4681 47.8486 34.9234 48.3813 37.501 48.3813C40.0785 48.3813 42.534 47.8487 44.7607 46.884V42.3315H30.2412V46.884Z" fill="#FDC88E"/>
<path d="M37.5011 45.9611C28.8139 45.9611 21.7715 38.9187 21.7715 30.2316V13.292H53.2306V30.2316C53.2306 38.9187 46.1884 45.9611 37.5011 45.9611Z" fill="#FFE1B2"/>
<path d="M21.7715 13.292V30.2316C21.7715 38.9188 28.8139 45.9611 37.501 45.9611C38.3261 45.9611 39.13 45.8785 39.9209 45.756C32.3857 44.5893 26.6113 38.0936 26.6113 30.2316V26.0933C26.6113 23.9328 28.0396 22.0327 30.1183 21.4443C33.4738 20.4945 36.9691 19.2719 39.921 17.7308V17.892C39.921 19.8041 41.3153 21.5303 43.22 21.6961C43.4058 21.7122 43.5952 21.7147 43.7874 21.7017C45.1167 21.6113 49.8889 20.7338 53.2306 19.9617V13.292H21.7715Z" fill="#FFD7A3"/>
<path d="M20.5623 74.9999V68.8342C20.5623 67.0553 19.7848 65.3757 18.4307 64.2253L11.5356 58.3623C10.9882 58.9736 10.5538 59.6744 10.2393 60.4359L16.8639 66.0693C17.6769 66.7594 18.1424 67.7672 18.1424 68.8342V74.9999H20.5623Z" fill="#00A0E3"/>
<path d="M54.4404 74.9999V68.8342C54.4404 67.0553 55.218 65.3757 56.5721 64.2253L63.4671 58.3623C64.0145 58.9736 64.449 59.6744 64.7635 60.4359L58.1389 66.0693C57.3259 66.7594 56.8604 67.7672 56.8604 68.8342V74.9999H54.4404Z" fill="#00A0E3"/>
<path d="M44.7594 48.3811L49.3353 49.9371C50.2623 50.2602 50.9042 51.1163 50.9619 52.0962C51.2201 56.4735 50.2651 60.0067 49.2504 62.4395C48.3255 64.657 45.9306 65.8683 43.5997 65.2856L37.5008 63.7609L31.402 65.2857C29.0711 65.8684 26.6762 64.6571 25.7513 62.4397C24.7366 60.0068 23.7816 56.4736 24.0398 52.0964C24.0975 51.1164 24.7394 50.2604 25.6664 49.9372L30.2422 48.3812L30.2411 48.3423V51.9722C30.2411 55.9816 33.4914 59.2319 37.5008 59.2319C41.5103 59.2319 44.7606 55.9816 44.7606 51.9722V48.3423" fill="white"/>
<path d="M44.7598 48.3808L44.7609 48.3812V48.3418L44.7598 48.3808Z" fill="#FFD164"/>
<path d="M30.2412 48.3418V48.3812L30.2424 48.3808L30.2412 48.3418Z" fill="#FFD164"/>
<path d="M37.501 61.6901C42.8469 61.6901 47.1807 57.3564 47.1807 52.0104V49.2038L44.7608 48.3809V51.9715C44.7608 55.9809 41.5104 59.2312 37.501 59.2312C33.4916 59.2312 30.2412 55.9809 30.2412 51.9715V48.3809L27.8213 49.2038V52.0104C27.8213 57.3562 32.155 61.6901 37.501 61.6901Z" fill="#EDEBED"/>
<path d="M37.5011 38.7188C35.6849 38.7188 34.0106 38.1363 33.0216 37.1602C32.5453 36.69 32.5407 35.9242 33.0097 35.4493C33.4812 34.9731 34.2469 34.9684 34.7206 35.4374C35.1236 35.8344 36.0925 36.2988 37.5009 36.2988C38.9094 36.2988 39.8784 35.8344 40.2812 35.4374C40.7551 34.9684 41.5207 34.9731 41.9921 35.4493C42.4612 35.9243 42.4565 36.69 41.9803 37.1602C40.9915 38.1363 39.3172 38.7188 37.5011 38.7188Z" fill="#E3AA75"/>
<path d="M30.2412 30.2314C29.5724 30.2314 29.0312 29.6903 29.0312 29.0215V27.8115C29.0312 27.1427 29.5724 26.6016 30.2412 26.6016C30.9101 26.6016 31.4512 27.1427 31.4512 27.8115V29.0215C31.4512 29.6902 30.9099 30.2314 30.2412 30.2314Z" fill="#6E5A64"/>
<path d="M44.7607 30.2314C44.0919 30.2314 43.5508 29.6903 43.5508 29.0215V27.8115C43.5508 27.1427 44.0919 26.6016 44.7607 26.6016C45.4296 26.6016 45.9707 27.1427 45.9707 27.8115V29.0215C45.9707 29.6902 45.4296 30.2314 44.7607 30.2314Z" fill="#6E5A64"/>
<path d="M31.4512 25.3911H29.0312C28.3624 25.3911 27.8213 24.85 27.8213 24.1812C27.8213 23.5123 28.3624 22.9712 29.0312 22.9712H31.4512C32.12 22.9712 32.6611 23.5123 32.6611 24.1812C32.6611 24.85 32.1199 25.3911 31.4512 25.3911Z" fill="#E3AA75"/>
<path d="M45.9707 25.3911H43.5508C42.8819 25.3911 42.3408 24.85 42.3408 24.1812C42.3408 23.5123 42.8819 22.9712 43.5508 22.9712H45.9707C46.6396 22.9712 47.1807 23.5123 47.1807 24.1812C47.1807 24.85 46.6396 25.3911 45.9707 25.3911Z" fill="#E3AA75"/>
<path d="M36.2875 0.0350428C25.7888 0.640463 17.5785 9.38719 16.9486 19.8844L16.8643 21.2898L16.9316 21.7616C16.9316 21.7616 32.427 19.6956 40.5096 14.6089C41.3066 14.1074 42.341 14.7016 42.341 15.6434V18.0787C42.341 18.778 42.9259 19.3345 43.6236 19.2872C45.071 19.1888 47.5601 18.9126 50.1263 18.1371C51.673 17.6697 53.2306 18.8379 53.2306 20.4538C56.1968 19.7546 57.9117 16.6358 56.9052 13.7593C53.9617 5.34613 45.7291 -0.50944 36.2875 0.0350428Z" fill="#FFE17D"/>
</g>
<defs>
<clipPath id="clip0">
<rect width="75" height="75" fill="white" transform="translate(0.000976562)"/>
</clipPath>
</defs>
</svg>
